<?xml version="1.0" standalone="no"?>
<!DOCTYPE svg PUBLIC "-//W3C//DTD SVG 20010904//EN"
 "http://www.w3.org/TR/2001/REC-SVG-20010904/DTD/svg10.dtd">
<svg version="1.0" xmlns="http://www.w3.org/2000/svg"
 width="2000.000000pt" height="2000.000000pt" viewBox="0 0 2000.000000 2000.000000"
 preserveAspectRatio="xMidYMid meet">
<metadata>
Created by potrace 1.16, written by Peter Selinger 2001-2019
</metadata>
<g transform="translate(0.000000,2000.000000) scale(0.100000,-0.100000)"
fill="#000000" stroke="none">
<path d="M7070 17516 c-249 -54 -443 -206 -551 -431 -81 -169 -74 73 -72
-2525 2 -1364 -1 -2303 -6 -2285 -5 17 -24 91 -41 165 -75 318 -214 597 -408
817 -153 172 -317 278 -494 317 -20 5 -44 31 -92 99 -94 135 -163 252 -181
308 l-17 51 29 36 c116 147 190 366 180 537 -4 87 -16 132 -75 283 -52 133
-241 336 -377 405 -57 28 -165 46 -355 57 -104 6 -135 11 -183 33 -64 29 -190
58 -281 65 -82 6 -204 -19 -301 -61 -130 -56 -222 -142 -282 -264 -33 -69 -36
-83 -40 -186 -3 -77 1 -142 12 -207 9 -52 19 -109 22 -127 4 -25 -3 -44 -31
-90 -41 -67 -44 -94 -15 -142 29 -48 56 -68 119 -87 52 -15 85 -15 167 2 29 6
33 4 39 -22 3 -16 17 -51 30 -79 12 -27 45 -97 71 -155 l49 -105 -18 -90 c-47
-229 -46 -231 58 -222 38 3 76 7 83 9 9 2 29 -23 51 -63 83 -149 241 -323 334
-369 42 -20 51 -21 94 -10 62 15 104 42 180 114 34 32 64 57 66 55 9 -10 136
-270 136 -279 0 -5 -21 -43 -46 -85 -98 -161 -160 -365 -230 -755 l-47 -255 7
-212 c3 -117 5 -213 3 -213 -1 0 -101 33 -222 73 -121 40 -357 118 -524 173
-292 95 -305 100 -316 129 -6 16 -33 86 -59 155 l-47 125 -66 38 c-36 20 -71
37 -77 37 -7 0 -48 -13 -92 -29 l-79 -29 -170 33 c-94 18 -187 36 -207 39 -27
5 -79 40 -193 132 -153 123 -158 126 -176 108 -18 -19 -16 -21 106 -118 69
-55 125 -103 125 -107 0 -5 -14 -37 -31 -72 l-31 -63 103 -193 103 -193 202
-164 c172 -139 316 -239 934 -649 584 -387 730 -489 730 -506 0 -11 -20 -184
-45 -382 -40 -314 -44 -368 -34 -410 6 -26 8 -67 5 -90 -3 -23 -7 -82 -7 -132
-1 -81 1 -91 21 -107 12 -10 33 -18 46 -18 13 0 24 -4 24 -9 0 -5 -27 -136
-61 -292 -67 -314 -135 -676 -179 -959 -62 -390 -116 -1099 -136 -1780 l-7
-225 28 -100 c37 -131 261 -760 544 -1529 45 -121 81 -224 81 -230 0 -6 36
-107 80 -225 68 -182 80 -223 80 -275 -1 -87 -27 -337 -37 -346 -4 -4 -92 -44
-195 -89 -103 -45 -218 -96 -255 -115 -37 -18 -124 -57 -193 -86 -69 -30 -130
-58 -137 -62 -22 -17 -46 -115 -40 -165 7 -66 27 -80 134 -89 92 -7 1465 3
1487 12 19 7 37 75 43 160 l6 74 33 6 c19 3 34 11 35 18 0 6 4 60 8 120 11
131 -1 187 -64 321 l-42 90 18 125 c19 131 23 182 38 449 18 320 -25 937 -128
1841 -16 140 -32 293 -36 340 -20 291 96 1513 184 1942 11 53 45 174 75 270
110 349 153 544 165 743 l6 110 37 9 36 9 7 106 c3 58 10 133 15 166 5 33 14
152 20 265 5 113 15 270 20 350 5 80 17 249 25 375 24 357 55 747 65 801 4 27
8 -1755 9 -3961 0 -3625 2 -4016 16 -4069 22 -82 47 -137 102 -220 119 -181
313 -312 514 -346 46 -8 982 -10 3289 -8 l3225 3 80 28 c152 54 306 161 389
271 50 66 116 202 116 239 0 17 -25 184 -55 373 -30 189 -55 346 -55 349 0 3
-22 5 -50 5 l-50 0 0 120 0 120 125 0 125 0 0 874 0 873 -71 64 c-40 35 -125
117 -190 183 l-119 121 0 -998 0 -997 -3510 0 -3510 0 0 5705 0 5705 3510 0
3510 0 0 -4349 0 -4349 58 -27 c70 -34 195 -158 267 -264 l50 -73 3 273 c2
249 1 276 -15 295 -236 290 -296 397 -297 534 -1 67 2 80 29 120 57 85 145
119 247 96 l37 -8 -2 4358 -2 4359 -23 80 c-83 293 -283 492 -565 564 -76 20
-126 20 -3285 26 -2738 4 -3217 3 -3272 -9z m4081 -643 c32 -31 30 -80 -5
-110 l-27 -23 -784 0 c-561 0 -791 3 -809 11 -36 17 -54 65 -35 98 30 52 6 51
851 48 l787 -2 22 -22z m-7022 -1816 c23 -15 39 -32 36 -37 -3 -5 -24 2 -45
16 -80 53 -188 38 -275 -38 -57 -50 -81 -97 -100 -192 -17 -93 -56 -173 -106
-222 -52 -51 -60 -38 -11 19 53 61 80 119 97 211 19 98 42 143 105 199 64 57
117 77 196 74 48 -2 71 -9 103 -30z m555 -112 c206 -70 299 -95 359 -95 26 0
37 -4 37 -15 0 -32 -188 8 -400 86 -168 63 -238 80 -284 69 -45 -10 -99 -43
-130 -81 -26 -30 -36 -36 -36 -19 0 21 64 80 113 105 70 36 105 31 341 -50z
m-269 -153 c33 -16 67 -37 75 -46 25 -31 124 -103 191 -139 108 -59 197 -81
329 -82 63 0 136 4 163 9 69 12 60 -9 -10 -23 -91 -18 -238 -14 -321 9 -103
29 -218 89 -309 162 -43 35 -90 71 -105 80 -39 26 -109 39 -146 28 -38 -10
-54 6 -20 19 42 17 92 11 153 -17z m-330 -51 c51 -29 95 -70 79 -73 -5 0 11
-4 35 -7 l45 -6 -3 -111 c-1 -61 3 -130 9 -153 10 -39 16 -45 76 -71 35 -16
81 -34 102 -39 30 -9 40 -17 47 -43 12 -39 45 -63 107 -80 39 -10 55 -9 95 3
42 13 49 19 59 55 17 60 51 121 76 138 42 30 77 20 129 -33 61 -64 92 -142 93
-237 l1 -72 -52 -51 c-29 -29 -56 -63 -59 -77 -4 -14 -2 -57 5 -94 18 -111 14
-188 -13 -245 -70 -150 -269 -334 -362 -335 -80 0 -299 235 -385 413 -21 43
-27 48 -49 42 -14 -3 -53 -8 -88 -12 l-62 -6 6 34 c4 19 16 83 29 144 l22 109
-37 76 c-74 148 -130 306 -130 365 0 78 99 191 216 247 38 18 71 34 73 35 12
8 -47 54 -92 73 -45 20 -55 21 -91 10 -44 -13 -88 -55 -117 -111 -21 -42 -26
-137 -9 -170 6 -11 8 -24 4 -31 -10 -15 -30 27 -39 79 -13 81 37 182 117 235
54 36 99 36 163 -1z m1153 -878 c17 -29 63 -100 102 -158 l71 -106 -23 -29
c-13 -15 -81 -95 -151 -176 -71 -82 -152 -179 -179 -216 -28 -38 -54 -68 -57
-68 -4 0 -37 62 -75 138 l-69 138 38 50 c21 27 47 69 59 94 22 47 21 40 13
304 l-2 59 46 11 c50 13 128 55 149 81 12 15 16 12 31 -27 9 -24 31 -67 47
-95z m423 -388 c301 -153 562 -529 688 -991 78 -287 95 -534 61 -884 -23 -235
-32 -351 -60 -745 -16 -231 -32 -447 -34 -480 -3 -33 -12 -197 -21 -365 -9
-168 -18 -319 -21 -337 -10 -65 -18 -68 -284 -113 -135 -22 -294 -43 -355 -47
-172 -9 -691 35 -860 74 -59 13 -77 22 -112 58 -24 23 -43 52 -43 63 0 27 89
744 93 748 1 1 54 -31 117 -73 207 -135 333 -184 479 -185 147 -2 220 57 328
266 28 55 55 101 60 101 8 -1 143 230 143 246 0 5 25 32 56 61 82 78 96 110
104 253 6 111 9 125 42 190 60 117 68 159 68 342 0 137 4 180 24 266 13 56 29
134 36 172 7 39 16 85 21 104 4 18 16 104 26 192 19 175 14 253 -27 379 -51
161 -196 389 -287 451 -74 51 -126 60 -258 44 -119 -15 -184 -35 -262 -81
-121 -71 -243 -226 -283 -359 -59 -200 -81 -376 -100 -795 -5 -107 -13 -217
-19 -245 -6 -32 -6 -89 0 -157 10 -102 9 -109 -11 -136 -44 -59 -38 -104 39
-321 22 -63 39 -116 37 -118 -3 -4 -266 91 -294 106 -16 8 -20 34 -31 178 -6
92 -16 215 -21 273 -19 223 -13 372 25 580 47 255 69 357 105 470 l29 95 162
185 c88 102 239 276 335 387 l174 202 38 -13 c21 -8 63 -26 93 -41z m187 -264
c107 -56 245 -264 308 -466 42 -136 38 -296 -16 -610 -11 -62 -17 -90 -46
-210 -12 -49 -18 -119 -19 -230 -2 -192 -14 -251 -71 -370 -43 -87 -44 -92
-44 -188 l0 -98 -97 6 c-249 16 -489 51 -700 102 l-113 27 -24 66 c-55 147
-57 182 -15 241 22 31 22 34 10 153 -7 77 -8 134 -2 156 5 19 12 91 16 160 27
558 61 788 140 951 71 149 207 263 370 310 87 26 253 25 303 0z m-2956 -1099
c106 -81 210 -161 231 -176 30 -23 41 -26 50 -17 9 10 -15 38 -113 131 -117
111 -124 119 -108 135 15 16 19 16 60 -12 23 -16 102 -51 173 -78 72 -27 131
-49 132 -49 0 -1 13 -80 27 -176 35 -237 30 -221 85 -257 31 -20 332 -135 831
-318 431 -157 795 -292 809 -299 32 -17 539 -380 563 -404 17 -17 15 -23 -31
-117 -55 -112 -114 -186 -172 -216 -87 -44 -214 -32 -368 34 -49 22 -382 236
-941 606 -737 489 -896 598 -1076 742 l-211 169 -97 184 -97 184 21 41 c11 23
24 41 29 41 5 0 96 -67 203 -148z m626 -104 l54 -148 432 -141 c237 -77 481
-156 541 -176 61 -19 113 -39 118 -42 6 -7 37 -312 31 -319 -1 -2 -127 42
-281 98 -259 95 -303 115 -645 292 -353 182 -368 191 -373 221 -3 18 -12 77
-20 132 -25 162 -19 150 -80 171 -30 10 -52 20 -50 22 8 8 170 40 194 39 22
-2 30 -17 79 -149z m2652 -2713 c0 -166 -55 -419 -169 -782 -81 -259 -110
-416 -165 -908 -48 -417 -71 -698 -86 -1015 -10 -219 -4 -333 29 -610 47 -383
90 -835 122 -1265 17 -239 15 -601 -5 -785 -26 -246 -93 -650 -109 -666 -6 -7
-178 12 -248 27 l-52 11 7 107 c10 140 30 347 61 616 49 427 25 815 -85 1347
-28 137 -30 162 -30 358 0 207 -1 214 -34 348 -41 164 -63 305 -72 467 -7 122
-1 200 36 470 36 265 92 969 116 1458 l7 138 -36 30 c-42 35 -123 136 -159
199 -14 25 -38 84 -53 131 -22 71 -26 101 -23 167 2 68 0 82 -14 91 -25 15
-31 -18 -26 -132 8 -160 69 -292 200 -432 l72 -77 -28 -442 c-29 -465 -65
-894 -91 -1086 -43 -315 -47 -365 -41 -507 8 -162 33 -334 76 -504 28 -112 30
-128 30 -324 0 -194 2 -216 35 -383 40 -205 79 -472 96 -654 17 -185 6 -500
-25 -748 -14 -113 -33 -301 -43 -418 l-17 -213 -25 6 c-14 2 -84 14 -156 25
-71 11 -131 23 -133 25 -3 2 2 64 9 137 22 206 18 791 -5 933 -25 154 -114
594 -179 885 -117 520 -116 515 -152 1035 -28 403 -48 661 -95 1205 -56 650
-60 814 -29 1240 12 174 46 510 52 516 2 2 84 -3 183 -11 98 -8 307 -18 464
-21 l285 -6 180 31 c99 18 209 38 245 45 36 8 68 14 73 15 4 0 7 -33 7 -74z
m-1529 -497 c-18 -243 -24 -610 -13 -748 77 -897 149 -1807 157 -1970 9 -192
43 -378 170 -940 44 -192 123 -589 140 -700 9 -61 18 -201 21 -335 4 -205 3
-226 -10 -195 -19 48 -270 730 -431 1170 -164 450 -313 878 -328 943 -26 112
37 1296 94 1767 34 290 193 1180 207 1165 2 -2 -1 -73 -7 -157z m5769 -4578
c84 -16 152 -53 215 -115 164 -165 163 -424 -2 -589 -164 -163 -426 -163 -587
0 -164 166 -165 421 -3 587 100 103 234 144 377 117z m-4479 -859 c32 -88 44
-190 24 -210 -17 -17 -65 -25 -65 -10 0 7 -14 33 -30 59 l-30 47 22 117 c26
135 28 135 79 -3z m-636 -66 c88 -14 201 -34 252 -45 50 -11 130 -23 177 -26
l86 -7 32 -64 c26 -53 32 -80 36 -149 l5 -84 -792 0 -791 0 6 28 c4 15 7 28 8
29 6 8 786 342 801 342 11 1 92 -10 180 -24z m571 -447 c-3 -17 -9 -34 -12
-37 -9 -10 -867 -23 -1213 -18 -302 3 -325 5 -337 22 -8 10 -14 29 -14 42 l0
23 791 0 792 0 -7 -32z"/>
<path d="M5539 9208 c0 -2 -17 -94 -38 -205 -37 -201 -37 -203 -16 -203 19 0
23 15 54 193 18 105 34 196 35 201 1 9 -33 22 -35 14z"/>
<path d="M10095 4037 c-3 -7 -4 -114 -3 -237 l3 -225 235 0 235 0 0 235 0 235
-233 3 c-183 2 -234 0 -237 -11z m425 -222 l0 -185 -185 0 -185 0 0 185 0 185
185 0 185 0 0 -185z"/>
<path d="M10209 13507 c-93 -39 -161 -99 -197 -173 -14 -30 -20 -34 -54 -34
-71 0 -177 -22 -197 -41 -30 -28 -51 -113 -52 -204 -1 -93 5 -118 41 -201 24
-51 50 -144 50 -174 0 -4 -9 -6 -20 -3 -14 4 -21 -1 -26 -22 -13 -51 2 -158
32 -230 27 -63 32 -70 59 -70 25 -1 30 -6 45 -50 22 -65 64 -147 101 -198 28
-38 29 -45 29 -146 l0 -106 -238 -135 c-130 -74 -256 -152 -280 -174 -24 -22
-56 -67 -74 -105 -29 -60 -32 -77 -36 -181 l-4 -115 79 -52 c176 -116 346
-188 555 -235 90 -20 130 -23 313 -23 186 0 221 3 310 24 212 50 369 116 533
225 l94 61 -4 116 c-4 107 -7 122 -36 181 -18 36 -51 83 -74 104 -24 22 -150
100 -280 174 l-238 135 0 106 c0 98 2 108 26 140 31 41 87 150 104 202 11 35
14 38 40 32 43 -10 73 35 93 137 9 45 22 110 28 143 22 112 22 149 0 192 -20
40 -20 41 -2 89 10 27 24 78 31 114 15 79 4 113 -42 138 -55 30 -125 101 -167
171 -49 82 -114 144 -189 179 -50 23 -72 27 -177 30 -107 2 -126 0 -176 -21z"/>
<path d="M8582 8198 c-19 -19 -14 -40 22 -98 l35 -55 -79 -3 c-65 -2 -82 -6
-89 -21 -7 -13 -6 -24 3 -37 12 -16 25 -18 90 -15 42 1 76 0 76 -3 0 -3 -16
-30 -35 -60 -39 -61 -44 -91 -17 -105 27 -14 48 3 83 70 37 69 38 69 84 -23
25 -48 38 -58 67 -50 32 8 29 35 -11 104 l-40 69 77 -2 c84 -3 102 2 102 30 0
32 -22 41 -97 41 -40 0 -73 2 -73 4 0 3 17 32 37 66 40 68 38 95 -8 95 -19 0
-32 -14 -63 -68 l-39 -68 -39 70 c-39 71 -60 85 -86 59z"/>
<path d="M9233 8203 c-23 -9 -14 -51 22 -107 l35 -55 -82 -3 c-79 -3 -83 -4
-86 -27 -6 -38 12 -45 94 -42 l75 2 -15 -28 c-8 -15 -24 -41 -35 -58 -26 -37
-27 -71 -3 -84 26 -14 49 3 77 57 41 80 39 80 79 9 41 -75 63 -88 89 -56 17
21 16 23 -9 68 -15 25 -34 57 -43 70 l-15 24 76 -6 c62 -5 80 -4 92 9 41 40
10 64 -81 64 -40 0 -73 3 -73 6 0 3 16 32 36 64 30 49 34 61 24 79 -24 46 -60
20 -110 -78 l-22 -45 -32 56 c-49 87 -59 95 -93 81z"/>
<path d="M9870 8189 c-10 -17 -5 -31 29 -85 l40 -64 -79 0 c-67 0 -81 -3 -89
-19 -7 -13 -6 -24 3 -37 12 -16 25 -18 92 -15 l77 2 -15 -23 c-8 -13 -27 -44
-42 -70 l-27 -47 21 -21 c28 -28 52 -14 85 48 42 81 39 81 79 9 42 -74 58 -85
87 -56 l20 20 -23 42 c-13 23 -32 55 -43 70 l-19 29 70 -2 c98 -3 102 -2 109
20 12 38 -11 50 -96 50 l-78 0 40 64 c34 55 39 68 29 86 -7 14 -19 20 -33 18
-21 -3 -41 -28 -82 -103 l-21 -37 -28 54 c-37 67 -55 88 -77 88 -10 0 -23 -9
-29 -21z"/>
<path d="M10520 8190 c-9 -17 -5 -31 24 -79 20 -32 36 -61 36 -64 0 -4 -34 -7
-76 -9 -60 -2 -79 -7 -88 -20 -8 -14 -7 -22 7 -35 14 -14 32 -17 94 -14 l76 2
-15 -23 c-8 -13 -27 -44 -42 -70 l-27 -47 21 -21 c29 -29 49 -15 89 59 18 34
34 61 36 61 2 0 18 -26 36 -57 39 -72 55 -86 80 -72 22 11 25 46 6 74 -7 11
-24 37 -37 58 l-23 39 69 -2 c98 -3 102 -2 109 20 12 38 -11 50 -96 50 l-78 0
40 64 c34 55 39 68 29 86 -7 14 -19 20 -33 18 -21 -3 -41 -28 -82 -103 l-21
-37 -28 54 c-37 67 -55 88 -77 88 -10 0 -23 -9 -29 -20z"/>
<path d="M11170 8190 c-10 -18 -6 -31 24 -81 20 -33 36 -62 36 -65 0 -2 -33
-4 -74 -4 -80 0 -103 -13 -91 -50 7 -22 11 -23 109 -20 l70 2 -19 -29 c-11
-15 -30 -48 -44 -72 l-24 -44 22 -18 c12 -10 28 -16 36 -13 8 3 30 35 50 70
20 35 38 64 40 64 3 0 16 -23 30 -50 36 -71 60 -93 85 -80 26 14 25 47 -1 85
-11 17 -27 43 -35 58 l-15 28 75 -2 c59 -3 80 0 92 13 13 12 14 20 5 36 -10
18 -22 22 -91 24 l-79 3 35 55 c41 65 42 103 4 108 -22 3 -31 -7 -66 -68 l-41
-71 -39 68 c-43 74 -73 91 -94 53z"/>
<path d="M11822 8198 c-19 -19 -15 -35 23 -94 19 -30 35 -57 35 -59 0 -3 -33
-5 -73 -5 -75 0 -97 -9 -97 -41 0 -28 18 -33 102 -30 l79 2 -42 -67 c-46 -72
-45 -96 3 -102 20 -2 29 6 53 50 46 86 44 86 85 16 28 -49 42 -64 62 -66 44
-5 45 29 4 99 -20 33 -36 63 -36 65 0 3 34 4 75 3 81 -3 99 5 93 42 -3 23 -8
24 -85 29 l-82 5 34 55 c37 59 42 79 23 98 -26 26 -47 12 -87 -59 l-39 -71
-27 48 c-49 86 -55 94 -73 94 -10 0 -23 -5 -30 -12z"/>
</g>
</svg>
